<svg xmlns="http://www.w3.org/2000/svg" xmlns:xlink="http://www.w3.org/1999/xlink" width="1000" zoomAndPan="magnify" viewBox="0 0 750 749.999995" height="1000" preserveAspectRatio="xMidYMid meet" version="1.0"><defs><filter x="0%" y="0%" width="100%" height="100%" id="2a154cc3d6"><feColorMatrix values="0 0 0 0 1 0 0 0 0 1 0 0 0 0 1 0 0 0 1 0" color-interpolation-filters="sRGB"/></filter><g/><clipPath id="9ccbe66b0e"><path d="M 597.839844 9.832031 L 750 9.832031 L 750 750 L 597.839844 750 Z M 597.839844 9.832031 " clip-rule="nonzero"/></clipPath><clipPath id="e01bdd1c53"><path d="M 586.15625 0 L 738.40625 0 L 738.40625 750 L 586.15625 750 Z M 586.15625 0 " clip-rule="nonzero"/></clipPath><clipPath id="d4939a2b5b"><path d="M 314 109 L 550 109 L 550 750 L 314 750 Z M 314 109 " clip-rule="nonzero"/></clipPath><clipPath id="8419756fbe"><path d="M 398.546875 109.257812 L 549.855469 126.144531 L 466.261719 875.246094 L 314.949219 858.359375 Z M 398.546875 109.257812 " clip-rule="nonzero"/></clipPath><clipPath id="8811d431b5"><path d="M 303 98 L 540 98 L 540 750 L 303 750 Z M 303 98 " clip-rule="nonzero"/></clipPath><clipPath id="8c40a84cf7"><path d="M 388.023438 98.195312 L 539.335938 115.078125 L 454.660156 873.867188 L 303.347656 856.984375 Z M 388.023438 98.195312 " clip-rule="nonzero"/></clipPath><clipPath id="602d2cbcce"><path d="M 11 224 L 339 224 L 339 750 L 11 750 Z M 11 224 " clip-rule="nonzero"/></clipPath><clipPath id="1078b003cd"><path d="M 190.976562 224.570312 L 338.835938 260.867188 L 159.128906 992.882812 L 11.269531 956.582031 Z M 190.976562 224.570312 " clip-rule="nonzero"/></clipPath><clipPath id="06bacd233f"><path d="M 0 212 L 330 212 L 330 750 L 0 750 Z M 0 212 " clip-rule="nonzero"/></clipPath><clipPath id="be199eec3d"><path d="M 181.972656 212.234375 L 329.832031 248.535156 L 147.800781 990.019531 L -0.0585938 953.71875 Z M 181.972656 212.234375 " clip-rule="nonzero"/></clipPath><clipPath id="d1a5e975a2"><path d="M 651 51 L 677 51 L 677 78 L 651 78 Z M 651 51 " clip-rule="nonzero"/></clipPath><clipPath id="932b29df91"><path d="M 664.003906 46.652344 L 682.035156 64.683594 L 664.003906 82.714844 L 645.972656 64.683594 Z M 664.003906 46.652344 " clip-rule="nonzero"/></clipPath><clipPath id="a8dfdfcfcf"><path d="M 664.003906 46.652344 L 682.035156 64.683594 L 664.003906 82.714844 L 645.972656 64.683594 Z M 664.003906 46.652344 " clip-rule="nonzero"/></clipPath><clipPath id="afc99e28fe"><path d="M 648 49 L 680 49 L 680 81 L 648 81 Z M 648 49 " clip-rule="nonzero"/></clipPath><clipPath id="c5e8a5ff5b"><path d="M 664.003906 46.652344 L 682.035156 64.683594 L 664.003906 82.714844 L 645.972656 64.683594 Z M 664.003906 46.652344 " clip-rule="nonzero"/></clipPath><clipPath id="7533d590d0"><path d="M 664.003906 46.652344 L 682.035156 64.683594 L 664.003906 82.714844 L 645.972656 64.683594 Z M 664.003906 46.652344 " clip-rule="nonzero"/></clipPath><mask id="abcfd8e3fc"><g filter="url(#2a154cc3d6)"><rect x="-75" width="900" fill="#000000" y="-74.999999" height="899.999994" fill-opacity="0.298"/></g></mask><clipPath id="534cd73c87"><path d="M 5 4 L 27 4 L 27 27 L 5 27 Z M 5 4 " clip-rule="nonzero"/></clipPath><clipPath id="5e611bbcc6"><path d="M 16.003906 -2.347656 L 34.035156 15.683594 L 16.003906 33.714844 L -2.027344 15.683594 Z M 16.003906 -2.347656 " clip-rule="nonzero"/></clipPath><clipPath id="e3cdaba649"><path d="M 16.003906 -2.347656 L 34.035156 15.683594 L 16.003906 33.714844 L -2.027344 15.683594 Z M 16.003906 -2.347656 " clip-rule="nonzero"/></clipPath><clipPath id="9302b4941a"><rect x="0" width="32" y="0" height="32"/></clipPath><clipPath id="a61db900e3"><path d="M 444 156 L 471 156 L 471 183 L 444 183 Z M 444 156 " clip-rule="nonzero"/></clipPath><clipPath id="55861edbe8"><path d="M 461.5625 151.726562 L 475.265625 173.230469 L 453.761719 186.933594 L 440.058594 165.429688 Z M 461.5625 151.726562 " clip-rule="nonzero"/></clipPath><clipPath id="81d12cc7a3"><path d="M 461.5625 151.726562 L 475.265625 173.230469 L 453.761719 186.933594 L 440.058594 165.429688 Z M 461.5625 151.726562 " clip-rule="nonzero"/></clipPath><clipPath id="356d026227"><path d="M 442 154 L 473 154 L 473 185 L 442 185 Z M 442 154 " clip-rule="nonzero"/></clipPath><clipPath id="89c830d534"><path d="M 461.5625 151.726562 L 475.265625 173.230469 L 453.761719 186.933594 L 440.058594 165.429688 Z M 461.5625 151.726562 " clip-rule="nonzero"/></clipPath><clipPath id="3f2698a909"><path d="M 461.5625 151.726562 L 475.265625 173.230469 L 453.761719 186.933594 L 440.058594 165.429688 Z M 461.5625 151.726562 " clip-rule="nonzero"/></clipPath><mask id="e2898a032e"><g filter="url(#2a154cc3d6)"><rect x="-75" width="900" fill="#000000" y="-74.999999" height="899.999994" fill-opacity="0.298"/></g></mask><clipPath id="288ae6ab58"><path d="M 4 4 L 27 4 L 27 27 L 4 27 Z M 4 4 " clip-rule="nonzero"/></clipPath><clipPath id="0d0c8e3cc8"><path d="M 19.5625 -2.273438 L 33.265625 19.230469 L 11.761719 32.933594 L -1.941406 11.429688 Z M 19.5625 -2.273438 " clip-rule="nonzero"/></clipPath><clipPath id="7491847e17"><path d="M 19.5625 -2.273438 L 33.265625 19.230469 L 11.761719 32.933594 L -1.941406 11.429688 Z M 19.5625 -2.273438 " clip-rule="nonzero"/></clipPath><clipPath id="7eac79d6b1"><rect x="0" width="31" y="0" height="31"/></clipPath><clipPath id="1c3563dd4e"><path d="M 233 276 L 258 276 L 258 301 L 233 301 Z M 233 276 " clip-rule="nonzero"/></clipPath><clipPath id="910ef1b621"><path d="M 251.300781 272.953125 L 261.109375 294.855469 L 239.207031 304.667969 L 229.398438 282.761719 Z M 251.300781 272.953125 " clip-rule="nonzero"/></clipPath><clipPath id="ff04bd8fb3"><path d="M 251.300781 272.953125 L 261.109375 294.855469 L 239.207031 304.667969 L 229.398438 282.761719 Z M 251.300781 272.953125 " clip-rule="nonzero"/></clipPath><clipPath id="011f46b903"><path d="M 231 275 L 259 275 L 259 303 L 231 303 Z M 231 275 " clip-rule="nonzero"/></clipPath><clipPath id="6ff0e51d6e"><path d="M 251.300781 272.953125 L 261.109375 294.855469 L 239.207031 304.667969 L 229.398438 282.761719 Z M 251.300781 272.953125 " clip-rule="nonzero"/></clipPath><clipPath id="cc70a57041"><path d="M 251.300781 272.953125 L 261.109375 294.855469 L 239.207031 304.667969 L 229.398438 282.761719 Z M 251.300781 272.953125 " clip-rule="nonzero"/></clipPath><mask id="a9739e4e40"><g filter="url(#2a154cc3d6)"><rect x="-75" width="900" fill="#000000" y="-74.999999" height="899.999994" fill-opacity="0.298"/></g></mask><clipPath id="79bfc1f3e0"><path d="M 4 3 L 25 3 L 25 24 L 4 24 Z M 4 3 " clip-rule="nonzero"/></clipPath><clipPath id="9e2095ea23"><path d="M 20.300781 -2.046875 L 30.109375 19.855469 L 8.207031 29.667969 L -1.601562 7.761719 Z M 20.300781 -2.046875 " clip-rule="nonzero"/></clipPath><clipPath id="7f6f4e513b"><path d="M 20.300781 -2.046875 L 30.109375 19.855469 L 8.207031 29.667969 L -1.601562 7.761719 Z M 20.300781 -2.046875 " clip-rule="nonzero"/></clipPath><clipPath id="9ad7d406b0"><rect x="0" width="28" y="0" height="28"/></clipPath></defs><g clip-path="url(#9ccbe66b0e)"><path fill="#000000" d="M 597.839844 9.839844 L 750.089844 9.839844 L 750.089844 763.570312 L 597.839844 763.570312 L 597.839844 9.839844 " fill-opacity="1" fill-rule="nonzero"/></g><g clip-path="url(#e01bdd1c53)"><path fill="#f2cc8f" d="M 586.15625 0.0078125 L 738.40625 0.0078125 L 738.40625 763.492188 L 586.15625 763.492188 L 586.15625 0.0078125 " fill-opacity="1" fill-rule="nonzero"/></g><g clip-path="url(#d4939a2b5b)"><g clip-path="url(#8419756fbe)"><path fill="#000000" d="M 398.546875 109.269531 L 549.855469 126.152344 L 466.261719 875.238281 L 314.953125 858.351562 L 398.546875 109.269531 " fill-opacity="1" fill-rule="nonzero"/></g></g><g clip-path="url(#8811d431b5)"><g clip-path="url(#8c40a84cf7)"><path fill="#3d405b" d="M 388.023438 98.203125 L 539.335938 115.089844 L 454.660156 873.859375 L 303.347656 856.972656 L 388.023438 98.203125 " fill-opacity="1" fill-rule="nonzero"/></g></g><g clip-path="url(#602d2cbcce)"><g clip-path="url(#1078b003cd)"><path fill="#000000" d="M 190.972656 224.578125 L 338.835938 260.875 L 159.132812 992.875 L 11.269531 956.574219 L 190.972656 224.578125 " fill-opacity="1" fill-rule="nonzero"/></g></g><g clip-path="url(#06bacd233f)"><g clip-path="url(#be199eec3d)"><path fill="#e07a5f" d="M 181.972656 212.246094 L 329.832031 248.542969 L 147.804688 990.007812 L -0.0546875 953.710938 L 181.972656 212.246094 " fill-opacity="1" fill-rule="nonzero"/></g></g><g fill="#ffffff" fill-opacity="1"><g transform="translate(146.610954, 739.914114)"><g><path d="M -1.109375 -29.859375 C 1.703125 -29.117188 3.585938 -27.4375 4.546875 -24.8125 C 5.515625 -22.195312 5.46875 -18.882812 4.40625 -14.875 C 2.4375 -7.425781 -1.300781 -3.796875 -6.8125 -3.984375 L -6.53125 -8.203125 C -4.582031 -8.179688 -2.972656 -8.804688 -1.703125 -10.078125 C -0.441406 -11.347656 0.53125 -13.273438 1.21875 -15.859375 C 1.925781 -18.546875 2.007812 -20.738281 1.46875 -22.4375 C 0.9375 -24.132812 -0.21875 -25.222656 -2 -25.703125 C -2.988281 -25.960938 -3.851562 -25.945312 -4.59375 -25.65625 C -5.34375 -25.363281 -6.03125 -24.851562 -6.65625 -24.125 C -7.28125 -23.40625 -7.878906 -22.515625 -8.453125 -21.453125 C -9.035156 -20.390625 -9.671875 -19.203125 -10.359375 -17.890625 C -11.535156 -15.617188 -12.554688 -13.929688 -13.421875 -12.828125 C -14.285156 -11.722656 -15.144531 -10.894531 -16 -10.34375 C -16.851562 -9.789062 -17.769531 -9.4375 -18.75 -9.28125 C -19.726562 -9.132812 -20.789062 -9.210938 -21.9375 -9.515625 C -24.5625 -10.210938 -26.316406 -11.75 -27.203125 -14.125 C -28.085938 -16.507812 -28.035156 -19.570312 -27.046875 -23.3125 C -26.128906 -26.78125 -24.890625 -29.289062 -23.328125 -30.84375 C -21.773438 -32.40625 -19.625 -33.210938 -16.875 -33.265625 L -17.234375 -28.984375 C -18.972656 -28.972656 -20.375 -28.429688 -21.4375 -27.359375 C -22.507812 -26.296875 -23.34375 -24.65625 -23.9375 -22.4375 C -24.582031 -19.988281 -24.671875 -18.007812 -24.203125 -16.5 C -23.742188 -15 -22.707031 -14.035156 -21.09375 -13.609375 C -20.15625 -13.359375 -19.304688 -13.398438 -18.546875 -13.734375 C -17.796875 -14.066406 -17.082031 -14.648438 -16.40625 -15.484375 C -15.738281 -16.316406 -14.722656 -18.054688 -13.359375 -20.703125 C -12.890625 -21.566406 -12.414062 -22.4375 -11.9375 -23.3125 C -11.46875 -24.195312 -10.960938 -25.023438 -10.421875 -25.796875 C -9.890625 -26.566406 -9.316406 -27.269531 -8.703125 -27.90625 C -8.085938 -28.539062 -7.398438 -29.050781 -6.640625 -29.4375 C -5.890625 -29.832031 -5.0625 -30.078125 -4.15625 -30.171875 C -3.25 -30.265625 -2.234375 -30.160156 -1.109375 -29.859375 Z M -1.109375 -29.859375 "/></g></g></g><g fill="#ffffff" fill-opacity="1"><g transform="translate(154.418663, 710.483123)"><g><path d="M 4.640625 -15.765625 C 3.984375 -13.253906 2.953125 -11.1875 1.546875 -9.5625 C 0.140625 -7.9375 -1.566406 -6.835938 -3.578125 -6.265625 C -5.585938 -5.691406 -7.796875 -5.726562 -10.203125 -6.375 L -29.671875 -11.53125 L -28.5625 -15.6875 L -9.453125 -10.625 C -6.660156 -9.882812 -4.351562 -10.03125 -2.53125 -11.0625 C -0.707031 -12.09375 0.554688 -13.945312 1.265625 -16.625 C 1.992188 -19.382812 1.8125 -21.722656 0.71875 -23.640625 C -0.375 -25.566406 -2.359375 -26.910156 -5.234375 -27.671875 L -24.0625 -32.671875 L -22.96875 -36.78125 L -3.90625 -31.71875 C -1.425781 -31.0625 0.566406 -29.972656 2.078125 -28.453125 C 3.597656 -26.929688 4.578125 -25.085938 5.015625 -22.921875 C 5.460938 -20.753906 5.335938 -18.367188 4.640625 -15.765625 Z M 4.640625 -15.765625 "/></g></g></g><g fill="#ffffff" fill-opacity="1"><g transform="translate(162.877132, 678.599108)"><g><path d="M -1.109375 -29.859375 C 1.703125 -29.117188 3.585938 -27.4375 4.546875 -24.8125 C 5.515625 -22.195312 5.46875 -18.882812 4.40625 -14.875 C 2.4375 -7.425781 -1.300781 -3.796875 -6.8125 -3.984375 L -6.53125 -8.203125 C -4.582031 -8.179688 -2.972656 -8.804688 -1.703125 -10.078125 C -0.441406 -11.347656 0.53125 -13.273438 1.21875 -15.859375 C 1.925781 -18.546875 2.007812 -20.738281 1.46875 -22.4375 C 0.9375 -24.132812 -0.21875 -25.222656 -2 -25.703125 C -2.988281 -25.960938 -3.851562 -25.945312 -4.59375 -25.65625 C -5.34375 -25.363281 -6.03125 -24.851562 -6.65625 -24.125 C -7.28125 -23.40625 -7.878906 -22.515625 -8.453125 -21.453125 C -9.035156 -20.390625 -9.671875 -19.203125 -10.359375 -17.890625 C -11.535156 -15.617188 -12.554688 -13.929688 -13.421875 -12.828125 C -14.285156 -11.722656 -15.144531 -10.894531 -16 -10.34375 C -16.851562 -9.789062 -17.769531 -9.4375 -18.75 -9.28125 C -19.726562 -9.132812 -20.789062 -9.210938 -21.9375 -9.515625 C -24.5625 -10.210938 -26.316406 -11.75 -27.203125 -14.125 C -28.085938 -16.507812 -28.035156 -19.570312 -27.046875 -23.3125 C -26.128906 -26.78125 -24.890625 -29.289062 -23.328125 -30.84375 C -21.773438 -32.40625 -19.625 -33.210938 -16.875 -33.265625 L -17.234375 -28.984375 C -18.972656 -28.972656 -20.375 -28.429688 -21.4375 -27.359375 C -22.507812 -26.296875 -23.34375 -24.65625 -23.9375 -22.4375 C -24.582031 -19.988281 -24.671875 -18.007812 -24.203125 -16.5 C -23.742188 -15 -22.707031 -14.035156 -21.09375 -13.609375 C -20.15625 -13.359375 -19.304688 -13.398438 -18.546875 -13.734375 C -17.796875 -14.066406 -17.082031 -14.648438 -16.40625 -15.484375 C -15.738281 -16.316406 -14.722656 -18.054688 -13.359375 -20.703125 C -12.890625 -21.566406 -12.414062 -22.4375 -11.9375 -23.3125 C -11.46875 -24.195312 -10.960938 -25.023438 -10.421875 -25.796875 C -9.890625 -26.566406 -9.316406 -27.269531 -8.703125 -27.90625 C -8.085938 -28.539062 -7.398438 -29.050781 -6.640625 -29.4375 C -5.890625 -29.832031 -5.0625 -30.078125 -4.15625 -30.171875 C -3.25 -30.265625 -2.234375 -30.160156 -1.109375 -29.859375 Z M -1.109375 -29.859375 "/></g></g></g><g fill="#ffffff" fill-opacity="1"><g transform="translate(170.684842, 649.168114)"><g><path d="M -14.140625 -32.984375 C -11.234375 -32.210938 -9.179688 -30.65625 -7.984375 -28.3125 C -6.785156 -25.96875 -6.613281 -23.175781 -7.46875 -19.9375 L -9.859375 -10.953125 L 2.0625 -7.796875 L 0.96875 -3.65625 L -29.609375 -11.765625 L -26.1875 -24.625 C -25.28125 -28.0625 -23.773438 -30.503906 -21.671875 -31.953125 C -19.566406 -33.410156 -17.054688 -33.753906 -14.140625 -32.984375 Z M -15.203125 -28.796875 C -19.160156 -29.847656 -21.769531 -28.003906 -23.03125 -23.265625 L -25.21875 -15.03125 L -13.125 -11.828125 L -10.890625 -20.21875 C -9.660156 -24.851562 -11.097656 -27.710938 -15.203125 -28.796875 Z M -15.203125 -28.796875 "/></g></g></g><g fill="#ffffff" fill-opacity="1"><g transform="translate(178.492551, 619.737126)"><g><path d="M 0.96875 -3.65625 L -29.609375 -11.765625 L -23.453125 -34.96875 L -20.078125 -34.078125 L -25.140625 -15.015625 L -15.328125 -12.40625 L -10.609375 -30.15625 L -7.265625 -29.265625 L -11.984375 -11.515625 L -1.328125 -8.6875 L 3.96875 -28.640625 L 7.359375 -27.75 Z M 0.96875 -3.65625 "/></g></g></g><g fill="#ffffff" fill-opacity="1"><g transform="translate(186.300259, 590.306138)"><g><path d="M 6.234375 -23.484375 L -24.15625 -14.03125 L -22.03125 -13.59375 L -18.375 -12.734375 L 1.953125 -7.34375 L 0.96875 -3.65625 L -29.609375 -11.765625 L -28.328125 -16.578125 L 2.28125 -26.171875 C -0.613281 -26.742188 -2.695312 -27.203125 -3.96875 -27.546875 L -24.015625 -32.859375 L -23.015625 -36.59375 L 7.5625 -28.484375 Z M 6.234375 -23.484375 "/></g></g></g><g fill="#ffffff" fill-opacity="1"><g transform="translate(194.758727, 558.422126)"><g><path d="M -1.109375 -29.859375 C 1.703125 -29.117188 3.585938 -27.4375 4.546875 -24.8125 C 5.515625 -22.195312 5.46875 -18.882812 4.40625 -14.875 C 2.4375 -7.425781 -1.300781 -3.796875 -6.8125 -3.984375 L -6.53125 -8.203125 C -4.582031 -8.179688 -2.972656 -8.804688 -1.703125 -10.078125 C -0.441406 -11.347656 0.53125 -13.273438 1.21875 -15.859375 C 1.925781 -18.546875 2.007812 -20.738281 1.46875 -22.4375 C 0.9375 -24.132812 -0.21875 -25.222656 -2 -25.703125 C -2.988281 -25.960938 -3.851562 -25.945312 -4.59375 -25.65625 C -5.34375 -25.363281 -6.03125 -24.851562 -6.65625 -24.125 C -7.28125 -23.40625 -7.878906 -22.515625 -8.453125 -21.453125 C -9.035156 -20.390625 -9.671875 -19.203125 -10.359375 -17.890625 C -11.535156 -15.617188 -12.554688 -13.929688 -13.421875 -12.828125 C -14.285156 -11.722656 -15.144531 -10.894531 -16 -10.34375 C -16.851562 -9.789062 -17.769531 -9.4375 -18.75 -9.28125 C -19.726562 -9.132812 -20.789062 -9.210938 -21.9375 -9.515625 C -24.5625 -10.210938 -26.316406 -11.75 -27.203125 -14.125 C -28.085938 -16.507812 -28.035156 -19.570312 -27.046875 -23.3125 C -26.128906 -26.78125 -24.890625 -29.289062 -23.328125 -30.84375 C -21.773438 -32.40625 -19.625 -33.210938 -16.875 -33.265625 L -17.234375 -28.984375 C -18.972656 -28.972656 -20.375 -28.429688 -21.4375 -27.359375 C -22.507812 -26.296875 -23.34375 -24.65625 -23.9375 -22.4375 C -24.582031 -19.988281 -24.671875 -18.007812 -24.203125 -16.5 C -23.742188 -15 -22.707031 -14.035156 -21.09375 -13.609375 C -20.15625 -13.359375 -19.304688 -13.398438 -18.546875 -13.734375 C -17.796875 -14.066406 -17.082031 -14.648438 -16.40625 -15.484375 C -15.738281 -16.316406 -14.722656 -18.054688 -13.359375 -20.703125 C -12.890625 -21.566406 -12.414062 -22.4375 -11.9375 -23.3125 C -11.46875 -24.195312 -10.960938 -25.023438 -10.421875 -25.796875 C -9.890625 -26.566406 -9.316406 -27.269531 -8.703125 -27.90625 C -8.085938 -28.539062 -7.398438 -29.050781 -6.640625 -29.4375 C -5.890625 -29.832031 -5.0625 -30.078125 -4.15625 -30.171875 C -3.25 -30.265625 -2.234375 -30.160156 -1.109375 -29.859375 Z M -1.109375 -29.859375 "/></g></g></g><g fill="#ffffff" fill-opacity="1"><g transform="translate(202.566436, 528.991138)"><g><path d="M 0.96875 -3.65625 L -29.609375 -11.765625 L -23.453125 -34.96875 L -20.078125 -34.078125 L -25.140625 -15.015625 L -15.328125 -12.40625 L -10.609375 -30.15625 L -7.265625 -29.265625 L -11.984375 -11.515625 L -1.328125 -8.6875 L 3.96875 -28.640625 L 7.359375 -27.75 Z M 0.96875 -3.65625 "/></g></g></g><g fill="#ffffff" fill-opacity="1"><g transform="translate(680.131146, 665.449316)"><g><path d="M 0 -24.296875 L -26.953125 -7.375 L -24.78125 -7.484375 L -21.03125 -7.59375 L 0 -7.59375 L 0 -3.78125 L -31.640625 -3.78125 L -31.640625 -8.765625 L -4.515625 -25.875 C -7.453125 -25.695312 -9.578125 -25.609375 -10.890625 -25.609375 L -31.640625 -25.609375 L -31.640625 -29.46875 L 0 -29.46875 Z M 0 -24.296875 "/></g></g></g><g fill="#ffffff" fill-opacity="1"><g transform="translate(680.131146, 632.232406)"><g><path d="M -15.96875 -33.578125 C -12.65625 -33.578125 -9.753906 -32.941406 -7.265625 -31.671875 C -4.785156 -30.410156 -2.878906 -28.597656 -1.546875 -26.234375 C -0.210938 -23.867188 0.453125 -21.078125 0.453125 -17.859375 C 0.453125 -14.609375 -0.203125 -11.800781 -1.515625 -9.4375 C -2.835938 -7.082031 -4.742188 -5.28125 -7.234375 -4.03125 C -9.734375 -2.789062 -12.644531 -2.171875 -15.96875 -2.171875 C -21.03125 -2.171875 -24.988281 -3.554688 -27.84375 -6.328125 C -30.695312 -9.097656 -32.125 -12.957031 -32.125 -17.90625 C -32.125 -21.125 -31.484375 -23.914062 -30.203125 -26.28125 C -28.921875 -28.644531 -27.054688 -30.453125 -24.609375 -31.703125 C -22.171875 -32.953125 -19.289062 -33.578125 -15.96875 -33.578125 Z M -15.96875 -29.203125 C -19.90625 -29.203125 -22.992188 -28.21875 -25.234375 -26.25 C -27.484375 -24.28125 -28.609375 -21.5 -28.609375 -17.90625 C -28.609375 -14.28125 -27.5 -11.476562 -25.28125 -9.5 C -23.070312 -7.519531 -19.96875 -6.53125 -15.96875 -6.53125 C -12 -6.53125 -8.847656 -7.53125 -6.515625 -9.53125 C -4.191406 -11.53125 -3.03125 -14.304688 -3.03125 -17.859375 C -3.03125 -21.515625 -4.15625 -24.316406 -6.40625 -26.265625 C -8.664062 -28.222656 -11.851562 -29.203125 -15.96875 -29.203125 Z M -15.96875 -29.203125 "/></g></g></g><g fill="#ffffff" fill-opacity="1"><g transform="translate(680.131146, 596.455167)"><g><path d="M 0 -24.296875 L -26.953125 -7.375 L -24.78125 -7.484375 L -21.03125 -7.59375 L 0 -7.59375 L 0 -3.78125 L -31.640625 -3.78125 L -31.640625 -8.765625 L -4.515625 -25.875 C -7.453125 -25.695312 -9.578125 -25.609375 -10.890625 -25.609375 L -31.640625 -25.609375 L -31.640625 -29.46875 L 0 -29.46875 Z M 0 -24.296875 "/></g></g></g><g fill="#ffffff" fill-opacity="1"><g transform="translate(680.131146, 563.238257)"><g><path d="M -28.140625 -8.0625 L -16.375 -8.0625 L -16.375 -25.71875 L -12.828125 -25.71875 L -12.828125 -8.0625 L 0 -8.0625 L 0 -3.78125 L -31.640625 -3.78125 L -31.640625 -26.25 L -28.140625 -26.25 Z M -28.140625 -8.0625 "/></g></g></g><g fill="#ffffff" fill-opacity="1"><g transform="translate(680.131146, 535.142006)"><g><path d="M 0 -4.25 L -31.640625 -4.25 L -31.640625 -8.53125 L 0 -8.53125 Z M 0 -4.25 "/></g></g></g><g fill="#ffffff" fill-opacity="1"><g transform="translate(680.131146, 522.362813)"><g><path d="M -28.609375 -17.796875 C -28.609375 -14.285156 -27.484375 -11.554688 -25.234375 -9.609375 C -22.984375 -7.660156 -19.894531 -6.6875 -15.96875 -6.6875 C -12.09375 -6.6875 -8.972656 -7.703125 -6.609375 -9.734375 C -4.253906 -11.765625 -3.078125 -14.507812 -3.078125 -17.96875 C -3.078125 -22.40625 -5.269531 -25.738281 -9.65625 -27.96875 L -7.90625 -31.46875 C -5.175781 -30.164062 -3.097656 -28.332031 -1.671875 -25.96875 C -0.253906 -23.613281 0.453125 -20.878906 0.453125 -17.765625 C 0.453125 -14.578125 -0.207031 -11.816406 -1.53125 -9.484375 C -2.863281 -7.160156 -4.757812 -5.390625 -7.21875 -4.171875 C -9.6875 -2.953125 -12.601562 -2.34375 -15.96875 -2.34375 C -21.019531 -2.34375 -24.972656 -3.703125 -27.828125 -6.421875 C -30.691406 -9.148438 -32.125 -12.925781 -32.125 -17.75 C -32.125 -21.113281 -31.460938 -23.925781 -30.140625 -26.1875 C -28.828125 -28.445312 -26.875 -30.109375 -24.28125 -31.171875 L -22.9375 -27.109375 C -24.78125 -26.378906 -26.1875 -25.203125 -27.15625 -23.578125 C -28.125 -21.953125 -28.609375 -20.023438 -28.609375 -17.796875 Z M -28.609375 -17.796875 "/></g></g></g><g fill="#ffffff" fill-opacity="1"><g transform="translate(680.131146, 489.145903)"><g><path d="M -28.140625 -16.171875 L 0 -16.171875 L 0 -11.90625 L -28.140625 -11.90625 L -28.140625 -1.03125 L -31.640625 -1.03125 L -31.640625 -27.046875 L -28.140625 -27.046875 Z M -28.140625 -16.171875 "/></g></g></g><g fill="#ffffff" fill-opacity="1"><g transform="translate(680.131146, 461.049652)"><g><path d="M 0 -4.25 L -31.640625 -4.25 L -31.640625 -8.53125 L 0 -8.53125 Z M 0 -4.25 "/></g></g></g><g fill="#ffffff" fill-opacity="1"><g transform="translate(680.131146, 448.270448)"><g><path d="M -15.96875 -33.578125 C -12.65625 -33.578125 -9.753906 -32.941406 -7.265625 -31.671875 C -4.785156 -30.410156 -2.878906 -28.597656 -1.546875 -26.234375 C -0.210938 -23.867188 0.453125 -21.078125 0.453125 -17.859375 C 0.453125 -14.609375 -0.203125 -11.800781 -1.515625 -9.4375 C -2.835938 -7.082031 -4.742188 -5.28125 -7.234375 -4.03125 C -9.734375 -2.789062 -12.644531 -2.171875 -15.96875 -2.171875 C -21.03125 -2.171875 -24.988281 -3.554688 -27.84375 -6.328125 C -30.695312 -9.097656 -32.125 -12.957031 -32.125 -17.90625 C -32.125 -21.125 -31.484375 -23.914062 -30.203125 -26.28125 C -28.921875 -28.644531 -27.054688 -30.453125 -24.609375 -31.703125 C -22.171875 -32.953125 -19.289062 -33.578125 -15.96875 -33.578125 Z M -15.96875 -29.203125 C -19.90625 -29.203125 -22.992188 -28.21875 -25.234375 -26.25 C -27.484375 -24.28125 -28.609375 -21.5 -28.609375 -17.90625 C -28.609375 -14.28125 -27.5 -11.476562 -25.28125 -9.5 C -23.070312 -7.519531 -19.96875 -6.53125 -15.96875 -6.53125 C -12 -6.53125 -8.847656 -7.53125 -6.515625 -9.53125 C -4.191406 -11.53125 -3.03125 -14.304688 -3.03125 -17.859375 C -3.03125 -21.515625 -4.15625 -24.316406 -6.40625 -26.265625 C -8.664062 -28.222656 -11.851562 -29.203125 -15.96875 -29.203125 Z M -15.96875 -29.203125 "/></g></g></g><g fill="#ffffff" fill-opacity="1"><g transform="translate(680.131146, 412.493197)"><g><path d="M 0 -24.296875 L -26.953125 -7.375 L -24.78125 -7.484375 L -21.03125 -7.59375 L 0 -7.59375 L 0 -3.78125 L -31.640625 -3.78125 L -31.640625 -8.765625 L -4.515625 -25.875 C -7.453125 -25.695312 -9.578125 -25.609375 -10.890625 -25.609375 L -31.640625 -25.609375 L -31.640625 -29.46875 L 0 -29.46875 Z M 0 -24.296875 "/></g></g></g><g fill="#ffffff" fill-opacity="1"><g transform="translate(418.803626, 690.349835)"><g><path d="M -26.46875 -20.859375 C -26.851562 -17.367188 -26.035156 -14.53125 -24.015625 -12.34375 C -21.992188 -10.15625 -19.035156 -8.84375 -15.140625 -8.40625 C -11.285156 -7.976562 -8.070312 -8.644531 -5.5 -10.40625 C -2.9375 -12.164062 -1.460938 -14.765625 -1.078125 -18.203125 C -0.585938 -22.609375 -2.394531 -26.160156 -6.5 -28.859375 L -4.375 -32.15625 C -1.800781 -30.550781 0.0546875 -28.5 1.203125 -26 C 2.359375 -23.5 2.765625 -20.703125 2.421875 -17.609375 C 2.066406 -14.441406 1.097656 -11.773438 -0.484375 -9.609375 C -2.066406 -7.441406 -4.144531 -5.882812 -6.71875 -4.9375 C -9.300781 -4 -12.265625 -3.71875 -15.609375 -4.09375 C -20.628906 -4.65625 -24.410156 -6.445312 -26.953125 -9.46875 C -29.492188 -12.488281 -30.492188 -16.394531 -29.953125 -21.1875 C -29.585938 -24.53125 -28.625 -27.25 -27.0625 -29.34375 C -25.507812 -31.445312 -23.378906 -32.890625 -20.671875 -33.671875 L -19.796875 -29.46875 C -21.710938 -28.957031 -23.238281 -27.945312 -24.375 -26.4375 C -25.519531 -24.9375 -26.21875 -23.078125 -26.46875 -20.859375 Z M -26.46875 -20.859375 "/></g></g></g><g fill="#ffffff" fill-opacity="1"><g transform="translate(422.478281, 657.336808)"><g><path d="M 0.421875 -3.765625 L -31.03125 -7.265625 L -30.5625 -11.515625 L -2.59375 -8.40625 L -0.828125 -24.3125 L 2.65625 -23.921875 Z M 0.421875 -3.765625 "/></g></g></g><g fill="#ffffff" fill-opacity="1"><g transform="translate(425.308188, 631.912981)"><g><path d="M 2.90625 -26.0625 L -6.6875 -23.46875 L -8.28125 -9.140625 L 0.5 -4.5 L 0.015625 -0.09375 L -30.015625 -16.421875 L -29.46875 -21.265625 L 3.390625 -30.40625 Z M -26.53125 -18.4375 L -25.921875 -18.171875 C -24.734375 -17.660156 -23.210938 -16.929688 -21.359375 -15.984375 L -11.46875 -10.8125 L -10.15625 -22.578125 L -21 -19.6875 C -22.0625 -19.382812 -23.269531 -19.101562 -24.625 -18.84375 Z M -26.53125 -18.4375 "/></g></g></g><g fill="#ffffff" fill-opacity="1"><g transform="translate(428.702088, 601.422253)"><g><path d="M -5.53125 -29.375 C -2.625 -29.050781 -0.5 -27.660156 0.84375 -25.203125 C 2.1875 -22.753906 2.628906 -19.472656 2.171875 -15.359375 C 1.316406 -7.691406 -1.84375 -3.546875 -7.3125 -2.921875 L -7.6875 -7.15625 C -5.75 -7.40625 -4.25 -8.253906 -3.1875 -9.703125 C -2.125 -11.148438 -1.441406 -13.207031 -1.140625 -15.875 C -0.835938 -18.625 -1.078125 -20.800781 -1.859375 -22.40625 C -2.640625 -24.007812 -3.945312 -24.910156 -5.78125 -25.109375 C -6.800781 -25.222656 -7.65625 -25.082031 -8.34375 -24.6875 C -9.039062 -24.289062 -9.644531 -23.691406 -10.15625 -22.890625 C -10.664062 -22.085938 -11.125 -21.113281 -11.53125 -19.96875 C -11.945312 -18.820312 -12.394531 -17.550781 -12.875 -16.15625 C -13.71875 -13.738281 -14.484375 -11.914062 -15.171875 -10.6875 C -15.859375 -9.46875 -16.582031 -8.519531 -17.34375 -7.84375 C -18.101562 -7.175781 -18.957031 -6.695312 -19.90625 -6.40625 C -20.863281 -6.125 -21.9375 -6.046875 -23.125 -6.171875 C -25.8125 -6.472656 -27.769531 -7.734375 -29 -9.953125 C -30.226562 -12.171875 -30.628906 -15.203125 -30.203125 -19.046875 C -29.796875 -22.617188 -28.941406 -25.285156 -27.640625 -27.046875 C -26.335938 -28.816406 -24.328125 -29.9375 -21.609375 -30.40625 L -21.34375 -26.140625 C -23.0625 -25.847656 -24.367188 -25.097656 -25.265625 -23.890625 C -26.160156 -22.691406 -26.738281 -20.945312 -27 -18.65625 C -27.28125 -16.132812 -27.078125 -14.164062 -26.390625 -12.75 C -25.703125 -11.332031 -24.53125 -10.53125 -22.875 -10.34375 C -21.90625 -10.238281 -21.070312 -10.40625 -20.375 -10.84375 C -19.6875 -11.28125 -19.070312 -11.957031 -18.53125 -12.875 C -17.988281 -13.800781 -17.238281 -15.671875 -16.28125 -18.484375 C -15.9375 -19.429688 -15.597656 -20.375 -15.265625 -21.3125 C -14.929688 -22.25 -14.554688 -23.132812 -14.140625 -23.96875 C -13.722656 -24.8125 -13.253906 -25.59375 -12.734375 -26.3125 C -12.222656 -27.03125 -11.625 -27.632812 -10.9375 -28.125 C -10.25 -28.625 -9.460938 -28.988281 -8.578125 -29.21875 C -7.691406 -29.445312 -6.675781 -29.5 -5.53125 -29.375 Z M -5.53125 -29.375 "/></g></g></g><g fill="#ffffff" fill-opacity="1"><g transform="translate(432.095989, 570.931525)"><g><path d="M -5.53125 -29.375 C -2.625 -29.050781 -0.5 -27.660156 0.84375 -25.203125 C 2.1875 -22.753906 2.628906 -19.472656 2.171875 -15.359375 C 1.316406 -7.691406 -1.84375 -3.546875 -7.3125 -2.921875 L -7.6875 -7.15625 C -5.75 -7.40625 -4.25 -8.253906 -3.1875 -9.703125 C -2.125 -11.148438 -1.441406 -13.207031 -1.140625 -15.875 C -0.835938 -18.625 -1.078125 -20.800781 -1.859375 -22.40625 C -2.640625 -24.007812 -3.945312 -24.910156 -5.78125 -25.109375 C -6.800781 -25.222656 -7.65625 -25.082031 -8.34375 -24.6875 C -9.039062 -24.289062 -9.644531 -23.691406 -10.15625 -22.890625 C -10.664062 -22.085938 -11.125 -21.113281 -11.53125 -19.96875 C -11.945312 -18.820312 -12.394531 -17.550781 -12.875 -16.15625 C -13.71875 -13.738281 -14.484375 -11.914062 -15.171875 -10.6875 C -15.859375 -9.46875 -16.582031 -8.519531 -17.34375 -7.84375 C -18.101562 -7.175781 -18.957031 -6.695312 -19.90625 -6.40625 C -20.863281 -6.125 -21.9375 -6.046875 -23.125 -6.171875 C -25.8125 -6.472656 -27.769531 -7.734375 -29 -9.953125 C -30.226562 -12.171875 -30.628906 -15.203125 -30.203125 -19.046875 C -29.796875 -22.617188 -28.941406 -25.285156 -27.640625 -27.046875 C -26.335938 -28.816406 -24.328125 -29.9375 -21.609375 -30.40625 L -21.34375 -26.140625 C -23.0625 -25.847656 -24.367188 -25.097656 -25.265625 -23.890625 C -26.160156 -22.691406 -26.738281 -20.945312 -27 -18.65625 C -27.28125 -16.132812 -27.078125 -14.164062 -26.390625 -12.75 C -25.703125 -11.332031 -24.53125 -10.53125 -22.875 -10.34375 C -21.90625 -10.238281 -21.070312 -10.40625 -20.375 -10.84375 C -19.6875 -11.28125 -19.070312 -11.957031 -18.53125 -12.875 C -17.988281 -13.800781 -17.238281 -15.671875 -16.28125 -18.484375 C -15.9375 -19.429688 -15.597656 -20.375 -15.265625 -21.3125 C -14.929688 -22.25 -14.554688 -23.132812 -14.140625 -23.96875 C -13.722656 -24.8125 -13.253906 -25.59375 -12.734375 -26.3125 C -12.222656 -27.03125 -11.625 -27.632812 -10.9375 -28.125 C -10.25 -28.625 -9.460938 -28.988281 -8.578125 -29.21875 C -7.691406 -29.445312 -6.675781 -29.5 -5.53125 -29.375 Z M -5.53125 -29.375 "/></g></g></g><g fill="#ffffff" fill-opacity="1"><g transform="translate(435.489889, 540.440797)"><g><path d="M 0.46875 -4.21875 L -30.984375 -7.71875 L -30.515625 -11.984375 L 0.9375 -8.484375 Z M 0.46875 -4.21875 "/></g></g></g><g fill="#ffffff" fill-opacity="1"><g transform="translate(436.903601, 527.740041)"><g><path d="M -26.46875 -20.859375 C -26.851562 -17.367188 -26.035156 -14.53125 -24.015625 -12.34375 C -21.992188 -10.15625 -19.035156 -8.84375 -15.140625 -8.40625 C -11.285156 -7.976562 -8.070312 -8.644531 -5.5 -10.40625 C -2.9375 -12.164062 -1.460938 -14.765625 -1.078125 -18.203125 C -0.585938 -22.609375 -2.394531 -26.160156 -6.5 -28.859375 L -4.375 -32.15625 C -1.800781 -30.550781 0.0546875 -28.5 1.203125 -26 C 2.359375 -23.5 2.765625 -20.703125 2.421875 -17.609375 C 2.066406 -14.441406 1.097656 -11.773438 -0.484375 -9.609375 C -2.066406 -7.441406 -4.144531 -5.882812 -6.71875 -4.9375 C -9.300781 -4 -12.265625 -3.71875 -15.609375 -4.09375 C -20.628906 -4.65625 -24.410156 -6.445312 -26.953125 -9.46875 C -29.492188 -12.488281 -30.492188 -16.394531 -29.953125 -21.1875 C -29.585938 -24.53125 -28.625 -27.25 -27.0625 -29.34375 C -25.507812 -31.445312 -23.378906 -32.890625 -20.671875 -33.671875 L -19.796875 -29.46875 C -21.710938 -28.957031 -23.238281 -27.945312 -24.375 -26.4375 C -25.519531 -24.9375 -26.21875 -23.078125 -26.46875 -20.859375 Z M -26.46875 -20.859375 "/></g></g></g><g fill="#ffffff" fill-opacity="1"><g transform="translate(440.578256, 494.727015)"><g><path d="M -5.53125 -29.375 C -2.625 -29.050781 -0.5 -27.660156 0.84375 -25.203125 C 2.1875 -22.753906 2.628906 -19.472656 2.171875 -15.359375 C 1.316406 -7.691406 -1.84375 -3.546875 -7.3125 -2.921875 L -7.6875 -7.15625 C -5.75 -7.40625 -4.25 -8.253906 -3.1875 -9.703125 C -2.125 -11.148438 -1.441406 -13.207031 -1.140625 -15.875 C -0.835938 -18.625 -1.078125 -20.800781 -1.859375 -22.40625 C -2.640625 -24.007812 -3.945312 -24.910156 -5.78125 -25.109375 C -6.800781 -25.222656 -7.65625 -25.082031 -8.34375 -24.6875 C -9.039062 -24.289062 -9.644531 -23.691406 -10.15625 -22.890625 C -10.664062 -22.085938 -11.125 -21.113281 -11.53125 -19.96875 C -11.945312 -18.820312 -12.394531 -17.550781 -12.875 -16.15625 C -13.71875 -13.738281 -14.484375 -11.914062 -15.171875 -10.6875 C -15.859375 -9.46875 -16.582031 -8.519531 -17.34375 -7.84375 C -18.101562 -7.175781 -18.957031 -6.695312 -19.90625 -6.40625 C -20.863281 -6.125 -21.9375 -6.046875 -23.125 -6.171875 C -25.8125 -6.472656 -27.769531 -7.734375 -29 -9.953125 C -30.226562 -12.171875 -30.628906 -15.203125 -30.203125 -19.046875 C -29.796875 -22.617188 -28.941406 -25.285156 -27.640625 -27.046875 C -26.335938 -28.816406 -24.328125 -29.9375 -21.609375 -30.40625 L -21.34375 -26.140625 C -23.0625 -25.847656 -24.367188 -25.097656 -25.265625 -23.890625 C -26.160156 -22.691406 -26.738281 -20.945312 -27 -18.65625 C -27.28125 -16.132812 -27.078125 -14.164062 -26.390625 -12.75 C -25.703125 -11.332031 -24.53125 -10.53125 -22.875 -10.34375 C -21.90625 -10.238281 -21.070312 -10.40625 -20.375 -10.84375 C -19.6875 -11.28125 -19.070312 -11.957031 -18.53125 -12.875 C -17.988281 -13.800781 -17.238281 -15.671875 -16.28125 -18.484375 C -15.9375 -19.429688 -15.597656 -20.375 -15.265625 -21.3125 C -14.929688 -22.25 -14.554688 -23.132812 -14.140625 -23.96875 C -13.722656 -24.8125 -13.253906 -25.59375 -12.734375 -26.3125 C -12.222656 -27.03125 -11.625 -27.632812 -10.9375 -28.125 C -10.25 -28.625 -9.460938 -28.988281 -8.578125 -29.21875 C -7.691406 -29.445312 -6.675781 -29.5 -5.53125 -29.375 Z M -5.53125 -29.375 "/></g></g></g><g clip-path="url(#d1a5e975a2)"><g clip-path="url(#932b29df91)"><g clip-path="url(#a8dfdfcfcf)"><path fill="#f4f1de" d="M 673.019531 55.667969 C 668.039062 50.691406 659.964844 50.691406 654.988281 55.667969 C 650.007812 60.648438 650.007812 68.722656 654.988281 73.699219 C 659.964844 78.679688 668.039062 78.679688 673.019531 73.699219 C 677.996094 68.722656 677.996094 60.648438 673.019531 55.667969 Z M 658.753906 65.722656 C 658.183594 65.148438 658.183594 64.21875 658.757812 63.648438 C 659.328125 63.074219 660.257812 63.074219 660.832031 63.648438 C 661.40625 64.21875 661.40625 65.148438 660.832031 65.722656 C 660.257812 66.296875 659.328125 66.296875 658.753906 65.722656 Z M 662.964844 61.515625 C 662.390625 60.941406 662.390625 60.011719 662.964844 59.4375 C 663.539062 58.863281 664.46875 58.863281 665.039062 59.4375 C 665.613281 60.011719 665.613281 60.941406 665.042969 61.515625 C 664.46875 62.085938 663.539062 62.085938 662.964844 61.515625 Z M 662.964844 69.933594 C 662.390625 69.359375 662.390625 68.429688 662.964844 67.855469 C 663.539062 67.28125 664.46875 67.285156 665.042969 67.855469 C 665.613281 68.429688 665.613281 69.359375 665.042969 69.933594 C 664.46875 70.503906 663.539062 70.503906 662.964844 69.933594 Z M 667.175781 65.722656 C 666.601562 65.148438 666.601562 64.21875 667.175781 63.648438 C 667.746094 63.074219 668.675781 63.074219 669.25 63.648438 C 669.824219 64.21875 669.824219 65.148438 669.25 65.722656 C 668.675781 66.296875 667.746094 66.296875 667.175781 65.722656 Z M 667.175781 65.722656 " fill-opacity="1" fill-rule="nonzero"/></g></g></g><g clip-path="url(#afc99e28fe)"><g clip-path="url(#c5e8a5ff5b)"><g clip-path="url(#7533d590d0)"><g mask="url(#abcfd8e3fc)"><g transform="matrix(1, 0, 0, 1, 648, 49)"><g clip-path="url(#9302b4941a)"><g clip-path="url(#534cd73c87)"><g clip-path="url(#5e611bbcc6)"><g clip-path="url(#e3cdaba649)"><path fill="#ffffff" d="M 23.601562 8.089844 C 19.40625 3.890625 12.601562 3.890625 8.40625 8.089844 C 4.210938 12.285156 4.210938 19.085938 8.40625 23.28125 C 12.601562 27.480469 19.40625 27.480469 23.601562 23.28125 C 27.796875 19.085938 27.796875 12.285156 23.601562 8.089844 Z M 9.714844 21.972656 C 6.242188 18.5 6.242188 12.871094 9.714844 9.398438 C 13.1875 5.925781 18.820312 5.925781 22.292969 9.398438 C 25.761719 12.871094 25.761719 18.5 22.289062 21.972656 C 18.816406 25.445312 13.1875 25.445312 9.714844 21.972656 Z M 9.714844 21.972656 " fill-opacity="1" fill-rule="nonzero"/></g></g></g></g></g></g></g></g></g><g clip-path="url(#a61db900e3)"><g clip-path="url(#55861edbe8)"><g clip-path="url(#81d12cc7a3)"><path fill="#f4f1de" d="M 468.414062 162.480469 C 464.632812 156.539062 456.75 154.792969 450.8125 158.578125 C 444.871094 162.363281 443.125 170.242188 446.910156 176.183594 C 450.695312 182.121094 458.574219 183.867188 464.515625 180.082031 C 470.453125 176.300781 472.199219 168.417969 468.414062 162.480469 Z M 452.316406 169.207031 C 451.878906 168.523438 452.082031 167.617188 452.765625 167.179688 C 453.449219 166.746094 454.355469 166.945312 454.792969 167.632812 C 455.226562 168.316406 455.027344 169.222656 454.34375 169.65625 C 453.660156 170.09375 452.75 169.890625 452.316406 169.207031 Z M 457.335938 166.011719 C 456.898438 165.324219 457.101562 164.417969 457.785156 163.984375 C 458.46875 163.546875 459.375 163.75 459.8125 164.433594 C 460.246094 165.117188 460.046875 166.023438 459.363281 166.460938 C 458.679688 166.894531 457.769531 166.695312 457.335938 166.011719 Z M 455.515625 174.230469 C 455.078125 173.542969 455.28125 172.636719 455.964844 172.203125 C 456.648438 171.765625 457.554688 171.96875 457.988281 172.652344 C 458.425781 173.335938 458.226562 174.242188 457.542969 174.679688 C 456.855469 175.113281 455.949219 174.914062 455.515625 174.230469 Z M 460.535156 171.03125 C 460.097656 170.347656 460.300781 169.4375 460.984375 169.003906 C 461.667969 168.566406 462.574219 168.769531 463.011719 169.453125 C 463.445312 170.136719 463.246094 171.042969 462.5625 171.480469 C 461.878906 171.914062 460.96875 171.714844 460.535156 171.03125 Z M 460.535156 171.03125 " fill-opacity="1" fill-rule="nonzero"/></g></g></g><g clip-path="url(#356d026227)"><g clip-path="url(#89c830d534)"><g clip-path="url(#3f2698a909)"><g mask="url(#e2898a032e)"><g transform="matrix(1, 0, 0, 1, 442, 154)"><g clip-path="url(#7eac79d6b1)"><g clip-path="url(#288ae6ab58)"><g clip-path="url(#0d0c8e3cc8)"><g clip-path="url(#7491847e17)"><path fill="#ffffff" d="M 24.722656 9.558594 C 21.535156 4.554688 14.894531 3.082031 9.890625 6.269531 C 4.886719 9.457031 3.414062 16.101562 6.601562 21.105469 C 9.789062 26.109375 16.433594 27.582031 21.4375 24.390625 C 26.441406 21.203125 27.914062 14.5625 24.722656 9.558594 Z M 8.164062 20.109375 C 5.523438 15.96875 6.742188 10.46875 10.882812 7.832031 C 15.027344 5.191406 20.523438 6.410156 23.160156 10.550781 C 25.800781 14.695312 24.582031 20.191406 20.441406 22.828125 C 16.300781 25.46875 10.800781 24.25 8.164062 20.109375 Z M 8.164062 20.109375 " fill-opacity="1" fill-rule="nonzero"/></g></g></g></g></g></g></g></g></g><g clip-path="url(#1c3563dd4e)"><g clip-path="url(#910ef1b621)"><g clip-path="url(#ff04bd8fb3)"><path fill="#f4f1de" d="M 256.207031 283.902344 C 253.496094 277.855469 246.398438 275.148438 240.347656 277.859375 C 234.300781 280.566406 231.59375 287.667969 234.300781 293.714844 C 237.011719 299.761719 244.113281 302.46875 250.160156 299.761719 C 256.207031 297.050781 258.914062 289.953125 256.207031 283.902344 Z M 240.292969 287.960938 C 239.980469 287.265625 240.292969 286.449219 240.988281 286.136719 C 241.683594 285.824219 242.5 286.136719 242.8125 286.832031 C 243.125 287.527344 242.8125 288.347656 242.117188 288.660156 C 241.421875 288.96875 240.601562 288.660156 240.292969 287.960938 Z M 245.402344 285.671875 C 245.09375 284.976562 245.402344 284.160156 246.101562 283.847656 C 246.796875 283.535156 247.613281 283.847656 247.925781 284.542969 C 248.238281 285.238281 247.925781 286.054688 247.230469 286.367188 C 246.535156 286.679688 245.714844 286.367188 245.402344 285.671875 Z M 242.582031 293.074219 C 242.269531 292.378906 242.582031 291.5625 243.277344 291.25 C 243.976562 290.9375 244.792969 291.25 245.105469 291.945312 C 245.414062 292.640625 245.105469 293.460938 244.410156 293.769531 C 243.710938 294.082031 242.894531 293.773438 242.582031 293.074219 Z M 247.695312 290.785156 C 247.382812 290.089844 247.695312 289.273438 248.390625 288.960938 C 249.085938 288.648438 249.90625 288.960938 250.214844 289.65625 C 250.527344 290.351562 250.21875 291.167969 249.519531 291.480469 C 248.824219 291.792969 248.007812 291.480469 247.695312 290.785156 Z M 247.695312 290.785156 " fill-opacity="1" fill-rule="nonzero"/></g></g></g><g clip-path="url(#011f46b903)"><g clip-path="url(#6ff0e51d6e)"><g clip-path="url(#cc70a57041)"><g mask="url(#a9739e4e40)"><g transform="matrix(1, 0, 0, 1, 231, 275)"><g clip-path="url(#9ad7d406b0)"><g clip-path="url(#79bfc1f3e0)"><g clip-path="url(#9e2095ea23)"><g clip-path="url(#7f6f4e513b)"><path fill="#ffffff" d="M 23.484375 9.675781 C 21.199219 4.578125 15.21875 2.296875 10.121094 4.582031 C 5.023438 6.863281 2.742188 12.847656 5.023438 17.941406 C 7.308594 23.039062 13.289062 25.320312 18.386719 23.039062 C 23.484375 20.753906 25.765625 14.773438 23.484375 9.675781 Z M 6.617188 17.230469 C 4.726562 13.011719 6.613281 8.0625 10.832031 6.171875 C 15.050781 4.28125 20.003906 6.167969 21.890625 10.386719 C 23.78125 14.605469 21.894531 19.558594 17.675781 21.445312 C 13.457031 23.335938 8.507812 21.449219 6.617188 17.230469 Z M 6.617188 17.230469 " fill-opacity="1" fill-rule="nonzero"/></g></g></g></g></g></g></g></g></g></svg>